<svg version="1.1" id="Layer_1" xmlns="http://www.w3.org/2000/svg" xmlns:xlink="http://www.w3.org/1999/xlink" x="0px" y="0px"
	 width="100%" viewBox="0 0 2000 2000" enable-background="new 0 0 2000 2000" xml:space="preserve">
<path fill="white" opacity="23.000000" stroke="none" 
	d="
M1070.000000,2001.000000 
	C713.333313,2001.000000 357.166656,2001.000000 1.000000,2001.000000 
	C1.000000,1334.333374 1.000000,667.666687 1.000000,1.000000 
	C667.666687,1.000000 1334.333374,1.000000 2001.000000,1.000000 
	C2001.000000,667.666687 2001.000000,1334.333374 2001.000000,2001.000000 
	C1690.833374,2001.000000 1380.666626,2001.000000 1070.000000,2001.000000 
M1227.073486,1703.097290 
	C1227.073486,1703.097290 1227.043823,1703.231689 1227.725342,1703.220337 
	C1228.292847,1702.871216 1228.860352,1702.522095 1230.063965,1701.972168 
	C1237.855225,1697.798462 1244.117188,1692.083862 1248.829224,1684.500732 
	C1260.009521,1666.507812 1263.580688,1646.364136 1264.720581,1625.832764 
	C1265.698242,1608.219727 1264.519531,1590.493530 1265.286499,1572.860474 
	C1265.920898,1558.274048 1266.525269,1543.416870 1269.721680,1529.261963 
	C1279.357666,1486.590454 1307.504395,1459.540161 1346.769775,1443.128296 
	C1380.546997,1429.010132 1415.977783,1421.774414 1452.420166,1418.863647 
	C1468.515991,1417.578003 1484.459351,1414.972046 1499.833618,1409.606567 
	C1525.145264,1400.772705 1543.768311,1383.298096 1558.974243,1362.228149 
	C1572.602295,1343.344604 1584.687988,1323.350098 1597.525879,1303.893188 
	C1607.598389,1288.627563 1618.112183,1273.811401 1630.704590,1260.325806 
	C1651.074829,1238.510376 1662.077393,1212.541992 1662.060791,1182.118042 
	C1661.945679,970.465027 1661.967163,758.812073 1662.082642,547.159119 
	C1662.089355,534.639221 1660.205078,522.585022 1655.877197,510.961548 
	C1646.610840,486.074585 1632.030029,465.143616 1608.685181,451.534149 
	C1563.215210,425.026276 1517.554321,398.845734 1471.973145,372.528687 
	C1332.921265,292.244690 1193.984253,211.760620 1054.739746,131.812164 
	C1018.616577,111.071739 980.736328,110.744896 944.581665,131.084641 
	C872.729614,171.506958 801.664001,213.327209 730.271973,254.567215 
	C617.342957,319.801270 504.240265,384.737366 391.583618,450.438385 
	C355.677856,471.378540 336.319214,504.058075 336.224487,545.652283 
	C335.739319,758.637390 335.751251,971.624817 336.216522,1184.609985 
	C336.306122,1225.633911 355.724518,1257.496704 390.414032,1279.091553 
	C415.851013,1294.926392 442.062561,1309.558228 468.306610,1324.041870 
	C488.008698,1334.915039 506.189178,1347.532959 521.828979,1364.727295 
	C531.782227,1379.468262 542.656921,1393.680542 551.485168,1409.067017 
	C566.946777,1436.014648 574.762817,1465.139893 568.915894,1496.349976 
	C564.971130,1517.406006 559.751282,1538.243896 554.510254,1559.030151 
	C550.194275,1576.147461 545.248352,1593.121338 545.407654,1610.956787 
	C545.499817,1621.276245 547.178406,1631.379395 555.310242,1638.824341 
	C569.761902,1652.055542 594.070984,1649.243286 606.736084,1632.824097 
	C615.999756,1621.368896 617.699524,1607.734253 617.511047,1593.755249 
	C617.297852,1577.937012 612.875854,1562.985840 607.671997,1548.129272 
	C600.086304,1526.472290 595.409485,1504.327515 597.837952,1481.053223 
	C600.894043,1451.764404 624.271240,1435.676758 646.763367,1439.465576 
	C657.303101,1446.044312 668.593628,1451.687378 678.215759,1459.409546 
	C694.839783,1472.750854 706.230469,1490.571899 715.535583,1509.534912 
	C722.976807,1524.699463 734.798218,1534.376099 750.359619,1539.809082 
	C765.437988,1545.073364 780.541016,1550.319336 795.833069,1554.907593 
	C819.626343,1562.046509 839.935181,1573.963135 854.912659,1594.324829 
	C876.053467,1623.065674 891.802368,1654.454590 901.664429,1688.701660 
	C908.717773,1713.195068 910.737549,1738.189331 905.776428,1763.328369 
	C901.752380,1783.719116 896.504822,1803.868530 892.483337,1824.259766 
	C887.089050,1851.611816 883.330933,1879.155151 888.080994,1907.077271 
	C891.067505,1924.632812 897.926392,1939.802368 914.045227,1949.430054 
	C935.667175,1962.344604 958.594543,1964.313477 982.166809,1956.832886 
	C996.483215,1952.289673 1009.022705,1944.416260 1017.311157,1931.157104 
	C1022.567017,1922.749512 1024.467529,1913.340454 1025.473389,1903.703857 
	C1026.920288,1889.842529 1026.154541,1876.176514 1021.059570,1862.199829 
	C1016.220459,1844.880981 1010.997253,1827.658081 1006.647217,1810.217163 
	C1002.060730,1791.828735 997.214050,1773.393555 994.455383,1754.687744 
	C990.625122,1728.715576 999.940552,1705.399902 1013.289246,1683.715088 
	C1029.848511,1656.814575 1051.910522,1634.530029 1074.357788,1612.612793 
	C1084.343506,1602.862915 1095.500610,1594.872070 1108.984009,1588.918457 
	C1109.812866,1588.846313 1110.641113,1588.764771 1111.470825,1588.703491 
	C1134.095581,1587.030396 1146.549561,1594.547485 1155.333862,1615.416138 
	C1159.564819,1625.467896 1161.644043,1636.016968 1161.973755,1646.929443 
	C1162.511108,1664.720947 1167.155029,1681.133179 1178.853882,1694.975952 
	C1191.028564,1709.381958 1207.910400,1712.634644 1225.006470,1704.015503 
	C1225.006470,1704.015503 1224.992920,1704.087891 1225.637573,1704.122925 
	C1226.156738,1703.802612 1226.675903,1703.482422 1227.073486,1703.097290 
z"/>
<path fill="#F1AA00" opacity="1.000000" stroke="none" 
	d="
M521.524597,1364.076416 
	C506.189178,1347.532959 488.008698,1334.915039 468.306610,1324.041870 
	C442.062561,1309.558228 415.851013,1294.926392 390.414032,1279.091553 
	C355.724518,1257.496704 336.306122,1225.633911 336.216522,1184.609985 
	C335.751251,971.624817 335.739319,758.637390 336.224487,545.652283 
	C336.319214,504.058075 355.677856,471.378540 391.583618,450.438385 
	C504.240265,384.737366 617.342957,319.801270 730.271973,254.567215 
	C801.664001,213.327209 872.729614,171.506958 944.581665,131.084641 
	C980.736328,110.744896 1018.616577,111.071739 1054.739746,131.812164 
	C1193.984253,211.760620 1332.921265,292.244690 1471.973145,372.528687 
	C1517.554321,398.845734 1563.215210,425.026276 1608.685181,451.534149 
	C1632.030029,465.143616 1646.610840,486.074585 1655.877197,510.961548 
	C1660.205078,522.585022 1662.089355,534.639221 1662.082642,547.159119 
	C1661.967163,758.812073 1661.945679,970.465027 1662.060791,1182.118042 
	C1662.077393,1212.541992 1651.074829,1238.510376 1630.704590,1260.325806 
	C1618.112183,1273.811401 1607.598389,1288.627563 1597.525879,1303.893188 
	C1584.687988,1323.350098 1572.602295,1343.344604 1558.974243,1362.228149 
	C1543.768311,1383.298096 1525.145264,1400.772705 1499.833618,1409.606567 
	C1484.459351,1414.972046 1468.515991,1417.578003 1452.420166,1418.863647 
	C1415.977783,1421.774414 1380.546997,1429.010132 1346.769775,1443.128296 
	C1307.504395,1459.540161 1279.357666,1486.590454 1269.721680,1529.261963 
	C1266.525269,1543.416870 1265.920898,1558.274048 1265.286499,1572.860474 
	C1264.519531,1590.493530 1265.698242,1608.219727 1264.720581,1625.832764 
	C1263.580688,1646.364136 1260.009521,1666.507812 1248.829224,1684.500732 
	C1244.117188,1692.083862 1237.855225,1697.798462 1229.387695,1702.053101 
	C1228.155518,1702.499878 1227.599609,1702.865723 1227.043823,1703.231689 
	C1227.043823,1703.231689 1227.073486,1703.097290 1226.800781,1703.097168 
	C1226.016479,1703.427490 1225.504761,1703.757812 1224.992920,1704.087891 
	C1224.992920,1704.087891 1225.006470,1704.015503 1224.583252,1703.982300 
	C1221.018066,1703.783936 1217.781494,1704.047852 1214.749634,1703.381348 
	C1199.233643,1699.970703 1189.758423,1689.305054 1183.677368,1675.577393 
	C1181.554443,1670.784912 1181.018799,1664.811279 1181.409058,1659.498169 
	C1181.964355,1651.940674 1183.980957,1644.482544 1185.487549,1637.004883 
	C1187.327759,1627.871216 1189.253296,1618.791382 1186.892822,1609.416138 
	C1182.537842,1592.119019 1169.326538,1579.441895 1153.441772,1578.099243 
	C1137.213135,1576.727661 1122.182983,1580.987183 1108.061768,1588.820190 
	C1095.500610,1594.872070 1084.343506,1602.862915 1074.357788,1612.612793 
	C1051.910522,1634.530029 1029.848511,1656.814575 1013.289246,1683.715088 
	C999.940552,1705.399902 990.625122,1728.715576 994.455383,1754.687744 
	C997.214050,1773.393555 1002.060730,1791.828735 1006.647217,1810.217163 
	C1010.997253,1827.658081 1016.220459,1844.880981 1021.075928,1863.005493 
	C1021.757690,1873.906616 1023.202393,1884.035889 1022.768433,1894.083862 
	C1022.542480,1899.314819 1020.106995,1905.308350 1016.758789,1909.390259 
	C1005.291565,1923.369873 983.440125,1926.026489 967.738892,1916.192139 
	C951.055298,1905.742798 943.777832,1889.142944 940.267456,1871.043091 
	C935.529480,1846.614014 936.755676,1822.013428 942.965820,1797.890137 
	C947.989868,1778.374268 950.648682,1758.757812 947.806885,1738.698853 
	C944.222961,1713.400635 935.571228,1689.647461 923.840759,1667.149780 
	C908.105652,1636.971680 887.964539,1609.940186 862.470642,1587.189087 
	C851.134888,1577.072876 838.760437,1568.557617 824.442078,1562.820435 
	C812.885254,1558.189819 801.528992,1552.864014 790.600159,1546.900269 
	C765.406006,1533.151733 746.553955,1512.360596 728.958740,1490.183838 
	C721.135071,1480.322998 713.267517,1470.241211 703.979797,1461.854614 
	C687.809204,1447.252319 668.148193,1439.963257 646.266846,1439.036865 
	C624.271240,1435.676758 600.894043,1451.764404 597.837952,1481.053223 
	C595.409485,1504.327515 600.086304,1526.472290 607.671997,1548.129272 
	C612.875854,1562.985840 617.297852,1577.937012 617.511047,1593.755249 
	C617.699524,1607.734253 615.999756,1621.368896 606.018555,1632.964600 
	C588.049805,1634.956299 578.631348,1628.518677 574.754761,1611.392212 
	C573.189575,1604.477661 572.124512,1597.257324 572.219971,1590.194946 
	C572.520447,1567.966064 577.224426,1546.364136 583.159363,1525.048828 
	C588.460449,1506.009277 592.244141,1486.999146 588.027832,1467.104736 
	C580.725281,1432.647461 568.032715,1401.159790 540.138733,1377.856201 
	C534.224487,1372.915283 527.744080,1368.651978 521.524597,1364.076416 
M736.668640,1210.116577 
	C801.402039,1191.791382 852.595703,1154.591553 891.798584,1099.792236 
	C885.425171,1094.979980 879.770691,1090.710571 874.186523,1086.494263 
	C827.640808,1149.677124 767.246216,1188.894775 688.862915,1196.187134 
	C610.724731,1203.456787 541.823730,1180.015015 485.906891,1124.991943 
	C382.392456,1023.132080 383.702423,858.200867 490.374084,757.856873 
	C543.552917,707.832581 608.179810,685.291382 681.105652,690.307495 
	C762.422607,695.900635 825.901123,734.370361 873.858765,800.046936 
	C879.741882,796.223450 885.692139,792.356262 891.646729,788.486328 
	C891.315979,787.665405 891.213135,787.157349 890.940063,786.768982 
	C875.325439,764.554993 857.296265,744.521790 835.873596,727.804016 
	C774.462952,679.880432 704.948608,660.130127 627.624512,669.999878 
	C570.349731,677.310608 519.279724,700.134766 477.509674,739.841797 
	C405.211578,808.568970 375.392944,893.199768 392.169312,992.107666 
	C403.438232,1058.545654 436.151672,1113.857056 488.267700,1156.750122 
	C531.363708,1192.219238 581.156189,1212.716797 636.891968,1218.248535 
	C670.366882,1221.570923 703.386719,1219.207153 736.668640,1210.116577 
M548.557556,742.059387 
	C524.394775,756.046509 503.114044,773.502991 485.419098,795.141541 
	C439.555573,851.226624 423.129883,915.334167 435.719849,986.323853 
	C445.469055,1041.295776 472.719147,1086.906128 515.884399,1122.369507 
	C570.178528,1166.975952 632.720764,1183.139526 701.835876,1172.469604 
	C750.860413,1164.901489 792.887756,1142.473022 827.910400,1107.414429 
	C837.845642,1097.469116 846.441223,1086.185547 855.871094,1075.261108 
	C849.122131,1070.244385 843.416626,1066.003174 837.369629,1061.508179 
	C813.323730,1096.217407 782.075928,1121.684082 743.494080,1137.840454 
	C704.768005,1154.057251 664.518799,1157.438843 623.496399,1149.555298 
	C582.413452,1141.659912 546.366943,1123.132690 516.634338,1093.690674 
	C434.767395,1012.623840 431.063019,880.120056 515.243469,795.087097 
	C555.486023,754.437134 605.387573,734.123962 662.612915,734.042847 
	C736.448975,733.938171 793.958801,766.374207 837.710022,825.313538 
	C843.666260,821.395447 849.558899,817.519165 855.432129,813.655640 
	C854.920593,812.622803 854.760010,812.140808 854.476074,811.747864 
	C807.368958,746.553101 743.659668,712.607788 663.185791,711.610657 
	C622.652588,711.108337 584.440918,721.235535 548.557556,742.059387 
M1369.078491,1123.279297 
	C1365.214844,1131.903564 1358.477295,1137.668579 1350.297974,1141.904297 
	C1336.948120,1148.817505 1322.540283,1152.468262 1307.750244,1153.966431 
	C1281.253540,1156.650146 1254.695435,1158.768188 1228.135376,1160.755005 
	C1221.395630,1161.259155 1214.418945,1161.138916 1207.784180,1159.975952 
	C1193.815063,1157.527466 1184.001953,1148.757812 1176.537231,1136.868286 
	C1176.249634,1137.535889 1176.037964,1137.950317 1175.888184,1138.385864 
	C1170.141357,1155.093628 1158.283813,1164.144409 1141.058838,1167.338745 
	C1120.131592,1171.219849 1099.072632,1174.816162 1078.544922,1180.308472 
	C1057.529175,1185.931274 1037.921753,1195.209595 1021.837097,1210.612671 
	C990.583740,1240.541992 983.455261,1283.111816 1004.366333,1320.022705 
	C1013.081238,1335.406006 1025.542725,1346.709229 1044.637329,1347.230469 
	C1070.985840,1347.950073 1096.031860,1328.302856 1091.040527,1298.506470 
	C1088.901978,1285.739136 1081.597900,1277.041504 1069.597778,1272.473267 
	C1058.282837,1268.166260 1047.862793,1270.283936 1038.975220,1278.362915 
	C1035.423340,1281.591675 1032.728638,1285.763428 1029.347534,1289.865356 
	C1029.347534,1286.663452 1029.090454,1283.884644 1029.387451,1281.166382 
	C1032.155640,1255.834595 1047.660278,1239.733154 1068.729980,1228.089966 
	C1091.611450,1215.445190 1116.604980,1209.255127 1142.185059,1204.817261 
	C1157.096436,1202.230347 1168.978516,1207.097778 1179.106689,1217.552124 
	C1181.556152,1220.080566 1183.617554,1222.984863 1186.019043,1225.913330 
	C1186.411987,1225.117065 1186.691895,1224.713989 1186.819824,1224.267334 
	C1191.986450,1206.240479 1204.390991,1196.699707 1222.482056,1193.803223 
	C1242.863770,1190.540283 1263.360596,1187.858398 1283.596924,1183.858765 
	C1312.945557,1178.058228 1341.602783,1170.356689 1365.810181,1151.084229 
	C1380.830444,1139.125977 1389.122314,1118.309814 1384.757935,1099.564697 
	C1380.675415,1082.029419 1363.848389,1066.598022 1345.298218,1063.377686 
	C1322.997437,1059.506226 1303.829712,1076.483398 1305.988281,1098.195190 
	C1307.198853,1110.371704 1318.087891,1119.936401 1330.244141,1119.501099 
	C1342.609619,1119.058228 1351.758667,1109.477295 1352.016724,1096.676270 
	C1352.062256,1094.417969 1352.023193,1092.157959 1352.023193,1089.877930 
	C1367.436279,1091.048218 1375.226318,1111.274170 1369.078491,1123.279297 
M1362.529663,761.197144 
	C1365.411987,759.083008 1368.294434,756.968933 1371.374268,754.709961 
	C1375.065430,762.797668 1374.546387,770.249023 1370.131348,777.396118 
	C1363.472778,788.175232 1350.980469,792.309265 1337.275635,788.353821 
	C1322.631104,784.127319 1310.838623,775.200928 1299.906128,765.091675 
	C1275.637573,742.650269 1254.515503,717.312500 1233.504150,691.908447 
	C1226.245850,683.132629 1222.728394,672.772583 1223.796509,661.268677 
	C1224.323608,655.592224 1225.545532,649.980286 1226.504761,644.018250 
	C1214.367676,648.403870 1202.354370,647.730164 1191.521973,641.091248 
	C1184.968628,637.074829 1179.360596,631.367493 1173.759888,625.971558 
	C1153.189331,606.153198 1131.703613,587.645142 1105.758179,574.972412 
	C1085.208618,564.935120 1063.589355,560.715027 1041.223267,565.407410 
	C1010.674866,571.816528 988.574402,589.712646 976.784363,618.882263 
	C970.429688,634.604492 969.244385,650.836182 979.875183,665.604065 
	C996.642883,688.897095 1028.237183,694.743896 1048.494141,671.884094 
	C1061.088989,657.670898 1057.824829,633.284485 1041.687866,623.414917 
	C1034.045776,618.740906 1025.802490,618.304932 1016.948242,619.099670 
	C1019.037842,616.929016 1021.278809,615.116760 1023.727783,613.652344 
	C1045.431396,600.673645 1067.512695,603.255859 1089.334473,612.899048 
	C1113.373657,623.522034 1133.572388,639.723389 1152.634766,657.608582 
	C1163.903442,668.181335 1166.832764,680.769043 1164.553345,695.272278 
	C1164.054688,698.445068 1163.102783,701.546692 1162.296387,704.947449 
	C1166.277222,703.889771 1169.725708,702.589905 1173.286011,702.095154 
	C1187.445312,700.127441 1199.598022,704.489441 1209.707397,714.484192 
	C1231.729004,736.255798 1253.495728,758.296509 1278.435913,776.857422 
	C1296.385864,790.216125 1315.481323,801.134644 1338.065430,804.245911 
	C1374.682373,809.290344 1402.738037,774.962219 1390.749756,739.972229 
	C1383.562744,718.994934 1363.441528,709.598328 1344.182861,718.225525 
	C1331.483765,723.914246 1325.584351,738.159241 1330.943604,750.193359 
	C1336.383057,762.407654 1349.014526,767.047729 1362.529663,761.197144 
M535.616516,1048.862305 
	C500.492767,1004.456726 489.481995,954.544495 503.877930,899.953369 
	C523.690735,824.820557 596.540283,770.746460 679.191223,778.847656 
	C724.273071,783.266541 761.422180,802.856506 790.809937,837.240295 
	C794.229309,841.241028 797.338074,845.507324 800.762573,849.869202 
	C806.939148,845.835205 812.844177,841.978516 818.748352,838.122375 
	C772.919250,770.606567 686.828369,737.327393 602.642700,765.848389 
	C523.673523,792.602173 466.646362,871.670654 477.078888,965.663025 
	C485.967468,1045.745117 549.128174,1117.230591 637.310486,1129.625366 
	C716.178894,1140.710938 786.920715,1100.030640 818.368164,1048.827637 
	C812.586670,1044.771729 806.792603,1040.706909 801.004761,1036.646484 
	C733.713806,1132.280640 602.807617,1130.209229 535.616516,1048.862305 
M709.963257,807.531982 
	C664.507812,793.087158 621.026123,798.231445 582.339294,825.657837 
	C532.904419,860.704163 512.986816,909.937805 522.785706,969.880249 
	C528.259583,1003.365662 545.111267,1031.342896 571.070068,1053.285522 
	C594.321960,1072.940063 621.401611,1084.698608 651.807068,1086.805786 
	C691.721558,1089.571777 727.459106,1078.093872 758.067688,1051.873169 
	C767.291748,1043.971436 775.262451,1034.938477 782.034973,1024.671387 
	C775.968811,1020.248291 770.329102,1016.136169 764.401001,1011.813782 
	C742.036377,1042.349854 712.775879,1061.364624 674.767517,1064.570923 
	C636.987488,1067.757812 604.373474,1055.869385 577.255127,1028.987671 
	C530.239380,982.382385 530.606018,904.005554 577.675659,857.751221 
	C601.429138,834.409302 629.621765,822.092468 662.838318,822.105774 
	C705.717163,822.122864 739.342041,840.558105 764.442383,875.192078 
	C770.494507,871.171997 776.278198,867.330200 782.412720,863.255432 
	C764.267883,836.802124 740.430969,818.523376 709.963257,807.531982 
M1157.990479,925.170349 
	C1162.756348,927.677734 1162.410278,932.304688 1162.445312,936.563354 
	C1162.568604,951.561340 1162.498657,966.560913 1162.502075,981.559875 
	C1162.502441,983.301392 1162.502075,985.042908 1162.502075,986.733276 
	C1168.551025,986.733276 1173.814941,986.733276 1179.278687,986.733276 
	C1179.278687,967.496399 1179.735840,948.514343 1179.138062,929.565613 
	C1178.634399,913.601196 1169.729126,906.711365 1153.915894,909.565125 
	C1146.168823,910.963196 1138.682983,913.808716 1130.631958,916.127930 
	C1125.755981,909.317444 1117.897949,907.963989 1109.732422,909.438660 
	C1101.836060,910.864746 1094.175049,913.593689 1086.360596,915.764282 
	C1083.863525,910.379395 1083.073975,910.131836 1072.318604,911.664917 
	C1072.318604,936.678467 1072.318604,961.717285 1072.318604,986.645569 
	C1078.053223,986.645569 1083.453979,986.645569 1089.136963,986.645569 
	C1089.136963,966.656982 1089.136963,947.025146 1089.136963,926.819763 
	C1094.204224,925.899292 1099.051636,924.615845 1103.971558,924.208740 
	C1114.278442,923.355774 1117.244873,926.194336 1117.309326,936.545105 
	C1117.402832,951.543518 1117.337280,966.542969 1117.339478,981.541931 
	C1117.339722,983.287537 1117.339478,985.033142 1117.339478,986.697998 
	C1123.393311,986.697998 1128.657471,986.697998 1134.146484,986.697998 
	C1134.146484,966.768066 1134.146484,947.142517 1134.146484,927.319824 
	C1141.785767,924.864746 1149.263672,922.851135 1157.990479,925.170349 
M797.065125,903.458740 
	C797.065125,906.871277 797.065125,910.283813 797.065125,913.501343 
	C790.766235,912.025513 785.031860,910.315125 779.173767,909.378296 
	C761.708435,906.585388 751.697693,913.346191 747.733704,930.488708 
	C744.993286,942.339539 745.200867,954.339050 747.498413,966.184814 
	C751.109924,984.804871 761.083313,991.641785 779.718079,988.068420 
	C786.108154,986.843201 792.186829,983.993774 797.883423,982.063965 
	C799.121765,983.471497 800.338684,986.167847 801.989319,986.466431 
	C805.806213,987.156860 809.833191,986.685791 813.844116,986.685791 
	C813.844116,949.169006 813.844116,912.287048 813.844116,875.296265 
	C808.190979,875.296265 802.802917,875.296265 797.065247,875.296265 
	C797.065247,884.552551 797.065247,893.510986 797.065125,903.458740 
M1203.223267,991.500000 
	C1203.223267,1001.591553 1203.223267,1011.683044 1203.223267,1021.751953 
	C1209.203979,1021.751953 1214.471924,1021.751953 1220.263916,1021.751953 
	C1220.263916,1009.309448 1220.263916,997.115051 1220.263916,984.770996 
	C1225.921021,986.179016 1230.983521,987.795471 1236.171265,988.666321 
	C1255.384888,991.892029 1266.825684,984.354614 1269.463623,965.134888 
	C1270.937866,954.393982 1270.933105,943.109009 1269.426392,932.373535 
	C1266.604736,912.268738 1255.626221,905.568359 1235.710571,910.380371 
	C1229.659424,911.842346 1223.821655,914.187439 1217.884888,916.123535 
	C1215.152588,910.810364 1211.633301,909.828552 1203.223389,912.174866 
	C1203.223389,938.235535 1203.223389,964.367798 1203.223267,991.500000 
M1020.942322,986.544983 
	C1024.521973,984.952271 1028.101807,983.359558 1031.826172,981.702454 
	C1032.420776,983.444214 1032.945312,984.980469 1033.418091,986.365112 
	C1038.228760,986.365112 1042.781738,986.365112 1047.006592,986.365112 
	C1047.006592,967.016479 1047.486816,948.050049 1046.825684,929.123535 
	C1046.431519,917.838623 1038.921021,910.670959 1027.496094,910.060425 
	C1017.932434,909.549438 1008.156555,909.657959 998.713013,911.077515 
	C986.194397,912.959351 988.661926,911.543457 988.594910,923.801697 
	C988.593262,924.104919 988.836670,924.409424 989.140198,925.124023 
	C990.632324,924.936646 992.253418,924.546326 993.870911,924.560669 
	C1003.157593,924.642883 1012.456482,924.579529 1021.723450,925.079956 
	C1025.689453,925.294189 1029.256104,927.457764 1029.967896,931.853088 
	C1030.666138,936.165283 1030.688232,940.586975 1031.005615,944.938782 
	C1023.448181,943.908325 1016.754456,942.481323 1010.009521,942.173035 
	C990.299500,941.272034 980.924866,951.830505 983.634033,971.319824 
	C983.748535,972.144104 983.825562,972.975037 983.974976,973.792847 
	C985.413696,981.668274 990.130737,986.402588 998.034668,988.048401 
	C1005.540405,989.611267 1012.918884,989.195007 1020.942322,986.544983 
M887.984558,913.416321 
	C878.534180,907.589172 868.305054,908.038208 858.003967,909.942566 
	C848.179138,911.758850 840.720947,917.163757 836.960449,926.484009 
	C830.546143,942.381714 831.248901,958.384399 838.186951,973.951355 
	C841.089355,980.463440 846.585022,984.700378 853.413696,986.770996 
	C866.857239,990.847473 880.093018,988.835266 893.154968,984.790588 
	C894.114319,984.493591 895.274231,983.073975 895.368469,982.083740 
	C895.657776,979.044067 895.473755,975.959351 895.473755,973.361267 
	C884.523926,973.361267 874.364990,974.005066 864.326172,973.182739 
	C854.003723,972.337280 850.212280,966.922607 850.655640,955.725220 
	C866.336914,955.725220 882.054077,955.725220 898.850342,955.725220 
	C898.850342,949.341797 899.133545,943.526184 898.785339,937.748657 
	C898.236084,928.636719 896.690125,919.796509 887.984558,913.416321 
M729.796997,932.926147 
	C726.811035,921.380920 720.116211,912.817993 708.218201,910.445374 
	C700.879822,908.982056 692.945679,908.954102 685.497925,909.938416 
	C672.868286,911.607544 664.650208,919.519897 661.875671,931.897156 
	C660.294861,938.949280 659.782471,946.410278 659.964783,953.657532 
	C660.581726,978.186218 675.643799,991.160583 700.090515,988.793945 
	C701.580505,988.649719 703.060181,988.382751 704.538635,988.137085 
	C717.055542,986.056519 725.434570,979.118958 729.064697,966.868225 
	C732.305176,955.932373 732.107178,944.847107 729.796997,932.926147 
M1346.005249,971.062012 
	C1346.068848,969.064697 1346.187256,967.067383 1346.187500,965.070068 
	C1346.189575,950.179016 1342.422241,945.518738 1327.871704,942.515991 
	C1322.009033,941.306152 1316.107422,940.284546 1310.246704,939.066284 
	C1305.661133,938.113037 1303.442749,935.268494 1303.740479,930.494507 
	C1304.036621,925.745667 1306.530518,923.311279 1313.214233,923.252136 
	C1322.657593,923.168396 1332.107544,923.831177 1342.096069,924.194519 
	C1342.096069,921.411926 1342.226440,918.115845 1342.009766,914.842651 
	C1341.951416,913.961060 1340.989502,912.610291 1340.187256,912.385559 
	C1326.491333,908.548279 1312.687012,906.654419 1299.170532,912.771240 
	C1289.751709,917.033691 1286.471313,925.200012 1287.950195,938.623230 
	C1288.908569,947.322998 1293.385010,951.913025 1303.578125,954.175842 
	C1310.232666,955.653259 1316.954712,956.835205 1323.663208,958.057861 
	C1328.102905,958.866821 1329.693237,961.645264 1329.604126,965.882019 
	C1329.513672,970.190125 1328.143555,973.623474 1323.321533,973.929016 
	C1316.861816,974.338318 1310.367188,974.611511 1303.903564,974.414490 
	C1298.508667,974.250000 1293.136963,973.324829 1287.402710,972.698059 
	C1287.402710,974.920044 1287.656738,976.774170 1287.353516,978.532227 
	C1286.553833,983.167664 1288.833862,984.886536 1293.015015,985.921509 
	C1304.463257,988.755371 1315.944092,989.848083 1327.659790,988.051941 
	C1338.623291,986.371216 1343.528320,982.112793 1346.005249,971.062012 
M966.804565,922.911865 
	C966.805115,921.912170 966.645447,920.881226 966.833130,919.917969 
	C967.809021,914.908813 965.482239,912.437744 960.715698,911.932373 
	C953.958008,911.215820 947.150635,909.811218 940.432617,910.131348 
	C928.499512,910.699951 919.461426,916.651794 915.005981,928.013489 
	C909.368835,942.388733 909.517578,957.023865 915.058105,971.410950 
	C918.013611,979.085510 923.604492,984.511475 931.596924,986.951599 
	C942.483887,990.275391 953.331238,989.455811 963.981323,985.801392 
	C965.279236,985.356079 966.949829,983.860168 967.115601,982.666260 
	C967.555054,979.500732 967.264771,976.233948 967.264771,973.197815 
	C958.784424,973.197815 951.116394,973.672119 943.534546,973.067017 
	C935.647400,972.437500 931.180237,968.381714 930.216431,960.560303 
	C929.330933,953.373962 929.159790,945.928528 929.977112,938.745544 
	C931.058777,929.238159 935.783691,925.494629 945.381226,925.129028 
	C951.533813,924.894775 957.705811,925.211182 963.866638,925.116394 
	C964.848877,925.101318 965.817810,924.220276 966.804565,922.911865 
M1046.701904,1536.159424 
	C1052.186035,1533.750366 1057.467407,1530.522339 1063.196777,1529.104614 
	C1074.642944,1526.272705 1077.880127,1519.296875 1076.319092,1508.376709 
	C1075.852905,1505.115234 1075.027466,1503.317505 1072.039551,1502.041016 
	C1063.318726,1498.315186 1054.695679,1494.360229 1046.037476,1490.487793 
	C1041.236816,1488.340820 1036.442749,1486.179321 1031.604736,1484.005981 
	C1031.293457,1484.894287 1031.109863,1485.196045 1031.089355,1485.508423 
	C1030.245361,1498.424072 1030.264282,1498.382202 1042.301392,1503.285767 
	C1049.912231,1506.386230 1057.462891,1509.634766 1066.143555,1513.280029 
	C1063.523438,1514.538818 1062.097168,1515.308838 1060.607422,1515.925781 
	C1051.846436,1519.552856 1043.043213,1523.080566 1034.329102,1526.816406 
	C1033.030029,1527.373413 1031.292847,1528.778076 1031.189819,1529.919678 
	C1030.812622,1534.098633 1031.040405,1538.332031 1031.040405,1543.171387 
	C1036.644775,1540.676514 1041.334351,1538.588745 1046.701904,1536.159424 
M941.760376,312.211945 
	C948.832947,309.328522 955.930664,306.503937 962.953979,303.505188 
	C964.159912,302.990265 965.863525,301.798950 965.943115,300.808136 
	C966.278198,296.635956 966.084717,292.421356 966.084717,287.430603 
	C963.527466,288.516205 962.027344,289.123169 960.551453,289.784393 
	C951.153870,293.994629 941.794189,298.291260 932.359314,302.416077 
	C921.023193,307.372101 920.996216,307.310211 920.997375,319.894043 
	C920.997498,320.892090 921.117615,321.907684 920.974731,322.884827 
	C920.568176,325.666229 921.869385,327.063995 924.362976,328.111694 
	C930.946228,330.877686 937.419678,333.903564 943.955872,336.783020 
	C951.049377,339.907990 958.164368,342.984375 966.123657,346.454132 
	C966.123657,343.308807 965.806702,340.984955 966.184998,338.780396 
	C967.181213,332.974609 964.680054,330.296265 959.239197,328.405090 
	C950.071594,325.218597 941.222900,321.114197 931.036194,316.897522 
	C935.142944,315.108826 938.102661,313.819702 941.760376,312.211945 
M970.124268,1495.240234 
	C970.124268,1491.954956 970.124268,1488.669556 970.124268,1484.543213 
	C967.855164,1485.439331 966.348999,1485.962280 964.902466,1486.617065 
	C956.110291,1490.598389 947.382385,1494.725952 938.536865,1498.584351 
	C924.514465,1504.700684 924.392700,1504.631836 925.129150,1520.090576 
	C925.207581,1521.737305 926.735657,1524.060669 928.215454,1524.772705 
	C937.207336,1529.098877 946.369080,1533.073975 955.497253,1537.113892 
	C960.120667,1539.160278 964.792603,1541.096802 969.614929,1543.156494 
	C971.475647,1528.732910 971.474121,1528.736816 959.186707,1523.903198 
	C957.020142,1523.051025 954.863342,1522.172607 952.717163,1521.270264 
	C947.182678,1518.943359 941.656738,1516.596313 934.932190,1513.751831 
	C946.418274,1509.031494 956.600403,1504.978516 966.632812,1500.583740 
	C968.153320,1499.917603 968.977478,1497.662109 970.124268,1495.240234 
M996.766907,322.228638 
	C991.077942,324.570160 985.340393,326.803589 979.732727,329.325806 
	C978.250305,329.992615 976.229614,331.437744 976.076904,332.718689 
	C975.601135,336.709320 975.902466,340.792572 975.902466,345.655060 
	C979.220215,344.348389 981.530823,343.529449 983.766663,342.541229 
	C991.525452,339.112061 999.200195,335.486481 1007.013550,332.188293 
	C1021.337524,326.141785 1021.281433,326.218079 1021.063354,310.923187 
	C1021.023376,308.121368 1020.046387,306.773651 1017.604370,305.703705 
	C1008.008179,301.499054 998.484497,297.128998 988.934570,292.818787 
	C984.782654,290.944916 980.632446,289.067322 976.258423,287.090607 
	C974.818909,301.552216 974.825928,301.534943 987.283508,306.587799 
	C994.778198,309.627716 1002.246948,312.731567 1010.093323,315.957153 
	C1009.214905,316.722778 1008.915466,317.136414 1008.512390,317.311096 
	C1004.851929,318.897949 1001.173279,320.443115 996.766907,322.228638 
M1022.518982,1464.962036 
	C1023.076782,1463.321411 1023.634583,1461.680664 1024.215454,1459.972168 
	C1013.511963,1457.726562 1011.752747,1458.416260 1008.665649,1465.935913 
	C999.513184,1488.229370 990.374695,1510.528809 981.269897,1532.841797 
	C979.433594,1537.341919 977.768982,1541.912109 975.812561,1547.003418 
	C979.697754,1547.003418 982.751099,1547.388184 985.635620,1546.856567 
	C987.318298,1546.546509 989.523682,1545.101318 990.147278,1543.605469 
	C1000.955811,1517.681030 1011.554932,1491.669434 1022.518982,1464.962036 
z"/>
<path fill="#ED4B49" opacity="1.000000" stroke="none" 
	d="
M646.515137,1439.251221 
	C668.148193,1439.963257 687.809204,1447.252319 703.979797,1461.854614 
	C713.267517,1470.241211 721.135071,1480.322998 728.958740,1490.183838 
	C746.553955,1512.360596 765.406006,1533.151733 790.600159,1546.900269 
	C801.528992,1552.864014 812.885254,1558.189819 824.442078,1562.820435 
	C838.760437,1568.557617 851.134888,1577.072876 862.470642,1587.189087 
	C887.964539,1609.940186 908.105652,1636.971680 923.840759,1667.149780 
	C935.571228,1689.647461 944.222961,1713.400635 947.806885,1738.698853 
	C950.648682,1758.757812 947.989868,1778.374268 942.965820,1797.890137 
	C936.755676,1822.013428 935.529480,1846.614014 940.267456,1871.043091 
	C943.777832,1889.142944 951.055298,1905.742798 967.738892,1916.192139 
	C983.440125,1926.026489 1005.291565,1923.369873 1016.758789,1909.390259 
	C1020.106995,1905.308350 1022.542480,1899.314819 1022.768433,1894.083862 
	C1023.202393,1884.035889 1021.757690,1873.906616 1021.137695,1863.392090 
	C1026.154541,1876.176514 1026.920288,1889.842529 1025.473389,1903.703857 
	C1024.467529,1913.340454 1022.567017,1922.749512 1017.311157,1931.157104 
	C1009.022705,1944.416260 996.483215,1952.289673 982.166809,1956.832886 
	C958.594543,1964.313477 935.667175,1962.344604 914.045227,1949.430054 
	C897.926392,1939.802368 891.067505,1924.632812 888.080994,1907.077271 
	C883.330933,1879.155151 887.089050,1851.611816 892.483337,1824.259766 
	C896.504822,1803.868530 901.752380,1783.719116 905.776428,1763.328369 
	C910.737549,1738.189331 908.717773,1713.195068 901.664429,1688.701660 
	C891.802368,1654.454590 876.053467,1623.065674 854.912659,1594.324829 
	C839.935181,1573.963135 819.626343,1562.046509 795.833069,1554.907593 
	C780.541016,1550.319336 765.437988,1545.073364 750.359619,1539.809082 
	C734.798218,1534.376099 722.976807,1524.699463 715.535583,1509.534912 
	C706.230469,1490.571899 694.839783,1472.750854 678.215759,1459.409546 
	C668.593628,1451.687378 657.303101,1446.044312 646.515137,1439.251221 
z"/>
<path fill="#ED4B49" opacity="1.000000" stroke="none" 
	d="
M521.676758,1364.401855 
	C527.744080,1368.651978 534.224487,1372.915283 540.138733,1377.856201 
	C568.032715,1401.159790 580.725281,1432.647461 588.027832,1467.104736 
	C592.244141,1486.999146 588.460449,1506.009277 583.159363,1525.048828 
	C577.224426,1546.364136 572.520447,1567.966064 572.219971,1590.194946 
	C572.124512,1597.257324 573.189575,1604.477661 574.754761,1611.392212 
	C578.631348,1628.518677 588.049805,1634.956299 605.722778,1633.131104 
	C594.070984,1649.243286 569.761902,1652.055542 555.310242,1638.824341 
	C547.178406,1631.379395 545.499817,1621.276245 545.407654,1610.956787 
	C545.248352,1593.121338 550.194275,1576.147461 554.510254,1559.030151 
	C559.751282,1538.243896 564.971130,1517.406006 568.915894,1496.349976 
	C574.762817,1465.139893 566.946777,1436.014648 551.485168,1409.067017 
	C542.656921,1393.680542 531.782227,1379.468262 521.676758,1364.401855 
z"/>
<path fill="#ED4B49" opacity="1.000000" stroke="none" 
	d="
M1108.522949,1588.869385 
	C1122.182983,1580.987183 1137.213135,1576.727661 1153.441772,1578.099243 
	C1169.326538,1579.441895 1182.537842,1592.119019 1186.892822,1609.416138 
	C1189.253296,1618.791382 1187.327759,1627.871216 1185.487549,1637.004883 
	C1183.980957,1644.482544 1181.964355,1651.940674 1181.409058,1659.498169 
	C1181.018799,1664.811279 1181.554443,1670.784912 1183.677368,1675.577393 
	C1189.758423,1689.305054 1199.233643,1699.970703 1214.749634,1703.381348 
	C1217.781494,1704.047852 1221.018066,1703.783936 1224.618896,1703.991577 
	C1207.910400,1712.634644 1191.028564,1709.381958 1178.853882,1694.975952 
	C1167.155029,1681.133179 1162.511108,1664.720947 1161.973755,1646.929443 
	C1161.644043,1636.016968 1159.564819,1625.467896 1155.333862,1615.416138 
	C1146.549561,1594.547485 1134.095581,1587.030396 1111.470825,1588.703491 
	C1110.641113,1588.764771 1109.812866,1588.846313 1108.522949,1588.869385 
z"/>
<path fill="#ED4B49" opacity="1.000000" stroke="none" 
	d="
M1227.384521,1703.225952 
	C1227.599609,1702.865723 1228.155518,1702.499878 1229.069580,1702.153564 
	C1228.860352,1702.522095 1228.292847,1702.871216 1227.384521,1703.225952 
z"/>
<path fill="#ED4B49" opacity="1.000000" stroke="none" 
	d="
M1225.315308,1704.105469 
	C1225.504761,1703.757812 1226.016479,1703.427490 1226.861572,1703.129639 
	C1226.675903,1703.482422 1226.156738,1703.802612 1225.315308,1704.105469 
z"/>
<path fill="#2B1F3F" opacity="1.000000" stroke="none" 
	d="
M736.278564,1210.231445 
	C703.386719,1219.207153 670.366882,1221.570923 636.891968,1218.248535 
	C581.156189,1212.716797 531.363708,1192.219238 488.267700,1156.750122 
	C436.151672,1113.857056 403.438232,1058.545654 392.169312,992.107666 
	C375.392944,893.199768 405.211578,808.568970 477.509674,739.841797 
	C519.279724,700.134766 570.349731,677.310608 627.624512,669.999878 
	C704.948608,660.130127 774.462952,679.880432 835.873596,727.804016 
	C857.296265,744.521790 875.325439,764.554993 890.940063,786.768982 
	C891.213135,787.157349 891.315979,787.665405 891.646729,788.486328 
	C885.692139,792.356262 879.741882,796.223450 873.858765,800.046936 
	C825.901123,734.370361 762.422607,695.900635 681.105652,690.307495 
	C608.179810,685.291382 543.552917,707.832581 490.374084,757.856873 
	C383.702423,858.200867 382.392456,1023.132080 485.906891,1124.991943 
	C541.823730,1180.015015 610.724731,1203.456787 688.862915,1196.187134 
	C767.246216,1188.894775 827.640808,1149.677124 874.186523,1086.494263 
	C879.770691,1090.710571 885.425171,1094.979980 891.798584,1099.792236 
	C852.595703,1154.591553 801.402039,1191.791382 736.278564,1210.231445 
z"/>
<path fill="#2B1F3F" opacity="1.000000" stroke="none" 
	d="
M548.885925,741.897034 
	C584.440918,721.235535 622.652588,711.108337 663.185791,711.610657 
	C743.659668,712.607788 807.368958,746.553101 854.476074,811.747864 
	C854.760010,812.140808 854.920593,812.622803 855.432129,813.655640 
	C849.558899,817.519165 843.666260,821.395447 837.710022,825.313538 
	C793.958801,766.374207 736.448975,733.938171 662.612915,734.042847 
	C605.387573,734.123962 555.486023,754.437134 515.243469,795.087097 
	C431.063019,880.120056 434.767395,1012.623840 516.634338,1093.690674 
	C546.366943,1123.132690 582.413452,1141.659912 623.496399,1149.555298 
	C664.518799,1157.438843 704.768005,1154.057251 743.494080,1137.840454 
	C782.075928,1121.684082 813.323730,1096.217407 837.369629,1061.508179 
	C843.416626,1066.003174 849.122131,1070.244385 855.871094,1075.261108 
	C846.441223,1086.185547 837.845642,1097.469116 827.910400,1107.414429 
	C792.887756,1142.473022 750.860413,1164.901489 701.835876,1172.469604 
	C632.720764,1183.139526 570.178528,1166.975952 515.884399,1122.369507 
	C472.719147,1086.906128 445.469055,1041.295776 435.719849,986.323853 
	C423.129883,915.334167 439.555573,851.226624 485.419098,795.141541 
	C503.114044,773.502991 524.394775,756.046509 548.885925,741.897034 
z"/>
<path fill="#29273A" opacity="1.000000" stroke="none" 
	d="
M1369.201538,1122.906494 
	C1375.226318,1111.274170 1367.436279,1091.048218 1352.023193,1089.877930 
	C1352.023193,1092.157959 1352.062256,1094.417969 1352.016724,1096.676270 
	C1351.758667,1109.477295 1342.609619,1119.058228 1330.244141,1119.501099 
	C1318.087891,1119.936401 1307.198853,1110.371704 1305.988281,1098.195190 
	C1303.829712,1076.483398 1322.997437,1059.506226 1345.298218,1063.377686 
	C1363.848389,1066.598022 1380.675415,1082.029419 1384.757935,1099.564697 
	C1389.122314,1118.309814 1380.830444,1139.125977 1365.810181,1151.084229 
	C1341.602783,1170.356689 1312.945557,1178.058228 1283.596924,1183.858765 
	C1263.360596,1187.858398 1242.863770,1190.540283 1222.482056,1193.803223 
	C1204.390991,1196.699707 1191.986450,1206.240479 1186.819824,1224.267334 
	C1186.691895,1224.713989 1186.411987,1225.117065 1186.019043,1225.913330 
	C1183.617554,1222.984863 1181.556152,1220.080566 1179.106689,1217.552124 
	C1168.978516,1207.097778 1157.096436,1202.230347 1142.185059,1204.817261 
	C1116.604980,1209.255127 1091.611450,1215.445190 1068.729980,1228.089966 
	C1047.660278,1239.733154 1032.155640,1255.834595 1029.387451,1281.166382 
	C1029.090454,1283.884644 1029.347534,1286.663452 1029.347534,1289.865356 
	C1032.728638,1285.763428 1035.423340,1281.591675 1038.975220,1278.362915 
	C1047.862793,1270.283936 1058.282837,1268.166260 1069.597778,1272.473267 
	C1081.597900,1277.041504 1088.901978,1285.739136 1091.040527,1298.506470 
	C1096.031860,1328.302856 1070.985840,1347.950073 1044.637329,1347.230469 
	C1025.542725,1346.709229 1013.081238,1335.406006 1004.366333,1320.022705 
	C983.455261,1283.111816 990.583740,1240.541992 1021.837097,1210.612671 
	C1037.921753,1195.209595 1057.529175,1185.931274 1078.544922,1180.308472 
	C1099.072632,1174.816162 1120.131592,1171.219849 1141.058838,1167.338745 
	C1158.283813,1164.144409 1170.141357,1155.093628 1175.888184,1138.385864 
	C1176.037964,1137.950317 1176.249634,1137.535889 1176.537231,1136.868286 
	C1184.001953,1148.757812 1193.815063,1157.527466 1207.784180,1159.975952 
	C1214.418945,1161.138916 1221.395630,1161.259155 1228.135376,1160.755005 
	C1254.695435,1158.768188 1281.253540,1156.650146 1307.750244,1153.966431 
	C1322.540283,1152.468262 1336.948120,1148.817505 1350.297974,1141.904297 
	C1358.477295,1137.668579 1365.214844,1131.903564 1369.201538,1122.906494 
z"/>
<path fill="#363D48" opacity="1.000000" stroke="none" 
	d="
M1362.192627,761.372925 
	C1349.014526,767.047729 1336.383057,762.407654 1330.943604,750.193359 
	C1325.584351,738.159241 1331.483765,723.914246 1344.182861,718.225525 
	C1363.441528,709.598328 1383.562744,718.994934 1390.749756,739.972229 
	C1402.738037,774.962219 1374.682373,809.290344 1338.065430,804.245911 
	C1315.481323,801.134644 1296.385864,790.216125 1278.435913,776.857422 
	C1253.495728,758.296509 1231.729004,736.255798 1209.707397,714.484192 
	C1199.598022,704.489441 1187.445312,700.127441 1173.286011,702.095154 
	C1169.725708,702.589905 1166.277222,703.889771 1162.296387,704.947449 
	C1163.102783,701.546692 1164.054688,698.445068 1164.553345,695.272278 
	C1166.832764,680.769043 1163.903442,668.181335 1152.634766,657.608582 
	C1133.572388,639.723389 1113.373657,623.522034 1089.334473,612.899048 
	C1067.512695,603.255859 1045.431396,600.673645 1023.727783,613.652344 
	C1021.278809,615.116760 1019.037842,616.929016 1016.948242,619.099670 
	C1025.802490,618.304932 1034.045776,618.740906 1041.687866,623.414917 
	C1057.824829,633.284485 1061.088989,657.670898 1048.494141,671.884094 
	C1028.237183,694.743896 996.642883,688.897095 979.875183,665.604065 
	C969.244385,650.836182 970.429688,634.604492 976.784363,618.882263 
	C988.574402,589.712646 1010.674866,571.816528 1041.223267,565.407410 
	C1063.589355,560.715027 1085.208618,564.935120 1105.758179,574.972412 
	C1131.703613,587.645142 1153.189331,606.153198 1173.759888,625.971558 
	C1179.360596,631.367493 1184.968628,637.074829 1191.521973,641.091248 
	C1202.354370,647.730164 1214.367676,648.403870 1226.504761,644.018250 
	C1225.545532,649.980286 1224.323608,655.592224 1223.796509,661.268677 
	C1222.728394,672.772583 1226.245850,683.132629 1233.504150,691.908447 
	C1254.515503,717.312500 1275.637573,742.650269 1299.906128,765.091675 
	C1310.838623,775.200928 1322.631104,784.127319 1337.275635,788.353821 
	C1350.980469,792.309265 1363.472778,788.175232 1370.131348,777.396118 
	C1374.546387,770.249023 1375.065430,762.797668 1371.374268,754.709961 
	C1368.294434,756.968933 1365.411987,759.083008 1362.192627,761.372925 
z"/>
<path fill="#2B1F3F" opacity="1.000000" stroke="none" 
	d="
M535.842773,1049.136230 
	C602.807617,1130.209229 733.713806,1132.280640 801.004761,1036.646484 
	C806.792603,1040.706909 812.586670,1044.771729 818.368164,1048.827637 
	C786.920715,1100.030640 716.178894,1140.710938 637.310486,1129.625366 
	C549.128174,1117.230591 485.967468,1045.745117 477.078888,965.663025 
	C466.646362,871.670654 523.673523,792.602173 602.642700,765.848389 
	C686.828369,737.327393 772.919250,770.606567 818.748352,838.122375 
	C812.844177,841.978516 806.939148,845.835205 800.762573,849.869202 
	C797.338074,845.507324 794.229309,841.241028 790.809937,837.240295 
	C761.422180,802.856506 724.273071,783.266541 679.191223,778.847656 
	C596.540283,770.746460 523.690735,824.820557 503.877930,899.953369 
	C489.481995,954.544495 500.492767,1004.456726 535.842773,1049.136230 
z"/>
<path fill="#2B1F3F" opacity="1.000000" stroke="none" 
	d="
M710.328125,807.682983 
	C740.430969,818.523376 764.267883,836.802124 782.412720,863.255432 
	C776.278198,867.330200 770.494507,871.171997 764.442383,875.192078 
	C739.342041,840.558105 705.717163,822.122864 662.838318,822.105774 
	C629.621765,822.092468 601.429138,834.409302 577.675659,857.751221 
	C530.606018,904.005554 530.239380,982.382385 577.255127,1028.987671 
	C604.373474,1055.869385 636.987488,1067.757812 674.767517,1064.570923 
	C712.775879,1061.364624 742.036377,1042.349854 764.401001,1011.813782 
	C770.329102,1016.136169 775.968811,1020.248291 782.034973,1024.671387 
	C775.262451,1034.938477 767.291748,1043.971436 758.067688,1051.873169 
	C727.459106,1078.093872 691.721558,1089.571777 651.807068,1086.805786 
	C621.401611,1084.698608 594.321960,1072.940063 571.070068,1053.285522 
	C545.111267,1031.342896 528.259583,1003.365662 522.785706,969.880249 
	C512.986816,909.937805 532.904419,860.704163 582.339294,825.657837 
	C621.026123,798.231445 664.507812,793.087158 710.328125,807.682983 
z"/>
<path fill="#020200" opacity="1.000000" stroke="none" 
	d="
M1157.598877,925.038574 
	C1149.263672,922.851135 1141.785767,924.864746 1134.146484,927.319824 
	C1134.146484,947.142517 1134.146484,966.768066 1134.146484,986.697998 
	C1128.657471,986.697998 1123.393311,986.697998 1117.339478,986.697998 
	C1117.339478,985.033142 1117.339722,983.287537 1117.339478,981.541931 
	C1117.337280,966.542969 1117.402832,951.543518 1117.309326,936.545105 
	C1117.244873,926.194336 1114.278442,923.355774 1103.971558,924.208740 
	C1099.051636,924.615845 1094.204224,925.899292 1089.136963,926.819763 
	C1089.136963,947.025146 1089.136963,966.656982 1089.136963,986.645569 
	C1083.453979,986.645569 1078.053223,986.645569 1072.318604,986.645569 
	C1072.318604,961.717285 1072.318604,936.678467 1072.318604,911.664917 
	C1083.073975,910.131836 1083.863525,910.379395 1086.360596,915.764282 
	C1094.175049,913.593689 1101.836060,910.864746 1109.732422,909.438660 
	C1117.897949,907.963989 1125.755981,909.317444 1130.631958,916.127930 
	C1138.682983,913.808716 1146.168823,910.963196 1153.915894,909.565125 
	C1169.729126,906.711365 1178.634399,913.601196 1179.138062,929.565613 
	C1179.735840,948.514343 1179.278687,967.496399 1179.278687,986.733276 
	C1173.814941,986.733276 1168.551025,986.733276 1162.502075,986.733276 
	C1162.502075,985.042908 1162.502441,983.301392 1162.502075,981.559875 
	C1162.498657,966.560913 1162.568604,951.561340 1162.445312,936.563354 
	C1162.410278,932.304688 1162.756348,927.677734 1157.598877,925.038574 
z"/>
<path fill="#030200" opacity="1.000000" stroke="none" 
	d="
M797.065186,902.964111 
	C797.065247,893.510986 797.065247,884.552551 797.065247,875.296265 
	C802.802917,875.296265 808.190979,875.296265 813.844116,875.296265 
	C813.844116,912.287048 813.844116,949.169006 813.844116,986.685791 
	C809.833191,986.685791 805.806213,987.156860 801.989319,986.466431 
	C800.338684,986.167847 799.121765,983.471497 797.883423,982.063965 
	C792.186829,983.993774 786.108154,986.843201 779.718079,988.068420 
	C761.083313,991.641785 751.109924,984.804871 747.498413,966.184814 
	C745.200867,954.339050 744.993286,942.339539 747.733704,930.488708 
	C751.697693,913.346191 761.708435,906.585388 779.173767,909.378296 
	C785.031860,910.315125 790.766235,912.025513 797.065125,913.501343 
	C797.065125,910.283813 797.065125,906.871277 797.065186,902.964111 
M776.846497,973.818970 
	C782.417480,972.980957 787.984802,972.117371 793.560974,971.315613 
	C796.457825,970.899048 797.218567,969.261963 797.131470,966.459839 
	C796.935059,960.135132 797.069885,953.800049 797.069885,947.469238 
	C797.069885,940.532837 797.069885,933.596436 797.069885,926.027649 
	C790.057068,925.313110 783.652344,924.352112 777.218811,924.086670 
	C769.912781,923.785217 765.901489,926.665222 765.207642,933.886108 
	C764.305176,943.278687 764.029663,952.829834 764.634827,962.238708 
	C765.137878,970.062195 768.106934,972.243713 776.846497,973.818970 
z"/>
<path fill="#040300" opacity="1.000000" stroke="none" 
	d="
M1203.223389,991.000000 
	C1203.223389,964.367798 1203.223389,938.235535 1203.223389,912.174866 
	C1211.633301,909.828552 1215.152588,910.810364 1217.885498,916.125732 
	C1223.821655,914.187439 1229.659424,911.842346 1235.710571,910.380371 
	C1255.626221,905.568359 1266.604736,912.268738 1269.426392,932.373535 
	C1270.933105,943.109009 1270.937866,954.393982 1269.463623,965.134888 
	C1266.825684,984.354614 1255.384888,991.892029 1236.171265,988.666321 
	C1230.983521,987.795471 1225.921021,986.179016 1220.263916,984.770996 
	C1220.263916,997.115051 1220.263916,1009.309448 1220.263916,1021.751953 
	C1214.471924,1021.751953 1209.203979,1021.751953 1203.223267,1021.751953 
	C1203.223267,1011.683044 1203.223267,1001.591553 1203.223389,991.000000 
M1252.932007,954.316223 
	C1252.598145,947.529846 1252.659058,940.693909 1251.813599,933.971863 
	C1251.046875,927.875793 1247.590820,924.261475 1242.151855,924.346191 
	C1234.840576,924.460022 1227.547363,925.719482 1220.309814,926.480469 
	C1220.309814,942.453125 1220.309814,957.042297 1220.309814,972.276733 
	C1224.444580,972.836975 1228.496582,973.699341 1232.579224,973.884155 
	C1248.909668,974.623535 1252.111938,971.608215 1252.932007,954.316223 
z"/>
<path fill="#050400" opacity="1.000000" stroke="none" 
	d="
M1020.571655,986.691772 
	C1012.918884,989.195007 1005.540405,989.611267 998.034668,988.048401 
	C990.130737,986.402588 985.413696,981.668274 983.974976,973.792847 
	C983.825562,972.975037 983.748535,972.144104 983.634033,971.319824 
	C980.924866,951.830505 990.299500,941.272034 1010.009521,942.173035 
	C1016.754456,942.481323 1023.448181,943.908325 1031.005615,944.938782 
	C1030.688232,940.586975 1030.666138,936.165283 1029.967896,931.853088 
	C1029.256104,927.457764 1025.689453,925.294189 1021.723450,925.079956 
	C1012.456482,924.579529 1003.157593,924.642883 993.870911,924.560669 
	C992.253418,924.546326 990.632324,924.936646 989.140198,925.124023 
	C988.836670,924.409424 988.593262,924.104919 988.594910,923.801697 
	C988.661926,911.543457 986.194397,912.959351 998.713013,911.077515 
	C1008.156555,909.657959 1017.932434,909.549438 1027.496094,910.060425 
	C1038.921021,910.670959 1046.431519,917.838623 1046.825684,929.123535 
	C1047.486816,948.050049 1047.006592,967.016479 1047.006592,986.365112 
	C1042.781738,986.365112 1038.228760,986.365112 1033.418091,986.365112 
	C1032.945312,984.980469 1032.420776,983.444214 1031.826172,981.702454 
	C1028.101807,983.359558 1024.521973,984.952271 1020.571655,986.691772 
M1013.372559,974.822205 
	C1015.016296,974.620728 1016.671448,974.485901 1018.302002,974.207153 
	C1030.904053,972.052185 1031.322388,971.530090 1030.776245,958.801697 
	C1030.756104,958.330872 1030.506226,957.869873 1029.932129,955.996582 
	C1022.747803,955.996582 1015.174377,955.795288 1007.618713,956.075684 
	C1003.405518,956.231995 1001.207825,958.974243 1000.752625,963.224060 
	C999.846558,971.682251 1002.701233,974.560303 1013.372559,974.822205 
z"/>
<path fill="#040300" opacity="1.000000" stroke="none" 
	d="
M888.279663,913.631958 
	C896.690125,919.796509 898.236084,928.636719 898.785339,937.748657 
	C899.133545,943.526184 898.850342,949.341797 898.850342,955.725220 
	C882.054077,955.725220 866.336914,955.725220 850.655640,955.725220 
	C850.212280,966.922607 854.003723,972.337280 864.326172,973.182739 
	C874.364990,974.005066 884.523926,973.361267 895.473755,973.361267 
	C895.473755,975.959351 895.657776,979.044067 895.368469,982.083740 
	C895.274231,983.073975 894.114319,984.493591 893.154968,984.790588 
	C880.093018,988.835266 866.857239,990.847473 853.413696,986.770996 
	C846.585022,984.700378 841.089355,980.463440 838.186951,973.951355 
	C831.248901,958.384399 830.546143,942.381714 836.960449,926.484009 
	C840.720947,917.163757 848.179138,911.758850 858.003967,909.942566 
	C868.305054,908.038208 878.534180,907.589172 888.279663,913.631958 
M883.155518,940.418701 
	C882.929688,935.144104 883.650757,929.540649 878.883728,925.644897 
	C874.432800,922.007507 861.824341,921.970642 856.388367,925.415039 
	C851.630066,928.430054 849.344360,935.441406 850.817993,942.993042 
	C860.721741,942.993042 870.688721,943.031677 880.654175,942.922485 
	C881.486145,942.913391 882.307190,941.907104 883.155518,940.418701 
z"/>
<path fill="#030200" opacity="1.000000" stroke="none" 
	d="
M729.883179,933.331055 
	C732.107178,944.847107 732.305176,955.932373 729.064697,966.868225 
	C725.434570,979.118958 717.055542,986.056519 704.538635,988.137085 
	C703.060181,988.382751 701.580505,988.649719 700.090515,988.793945 
	C675.643799,991.160583 660.581726,978.186218 659.964783,953.657532 
	C659.782471,946.410278 660.294861,938.949280 661.875671,931.897156 
	C664.650208,919.519897 672.868286,911.607544 685.497925,909.938416 
	C692.945679,908.954102 700.879822,908.982056 708.218201,910.445374 
	C720.116211,912.817993 726.811035,921.380920 729.883179,933.331055 
M687.943604,924.032776 
	C682.718872,925.856201 679.256592,929.704834 678.907471,934.967529 
	C678.306702,944.024963 677.782043,953.256836 678.887329,962.210388 
	C679.992065,971.160339 686.655457,975.089905 696.441956,974.707214 
	C705.947449,974.335571 711.762146,970.020874 712.655579,961.055298 
	C713.457825,953.005554 713.368774,944.769409 712.692017,936.697754 
	C712.033997,928.849609 707.209229,924.065186 700.116333,923.307251 
	C696.384583,922.908569 692.534119,923.620361 687.943604,924.032776 
z"/>
<path fill="#040300" opacity="1.000000" stroke="none" 
	d="
M1345.959229,971.505371 
	C1343.528320,982.112793 1338.623291,986.371216 1327.659790,988.051941 
	C1315.944092,989.848083 1304.463257,988.755371 1293.015015,985.921509 
	C1288.833862,984.886536 1286.553833,983.167664 1287.353516,978.532227 
	C1287.656738,976.774170 1287.402710,974.920044 1287.402710,972.698059 
	C1293.136963,973.324829 1298.508667,974.250000 1303.903564,974.414490 
	C1310.367188,974.611511 1316.861816,974.338318 1323.321533,973.929016 
	C1328.143555,973.623474 1329.513672,970.190125 1329.604126,965.882019 
	C1329.693237,961.645264 1328.102905,958.866821 1323.663208,958.057861 
	C1316.954712,956.835205 1310.232666,955.653259 1303.578125,954.175842 
	C1293.385010,951.913025 1288.908569,947.322998 1287.950195,938.623230 
	C1286.471313,925.200012 1289.751709,917.033691 1299.170532,912.771240 
	C1312.687012,906.654419 1326.491333,908.548279 1340.187256,912.385559 
	C1340.989502,912.610291 1341.951416,913.961060 1342.009766,914.842651 
	C1342.226440,918.115845 1342.096069,921.411926 1342.096069,924.194519 
	C1332.107544,923.831177 1322.657593,923.168396 1313.214233,923.252136 
	C1306.530518,923.311279 1304.036621,925.745667 1303.740479,930.494507 
	C1303.442749,935.268494 1305.661133,938.113037 1310.246704,939.066284 
	C1316.107422,940.284546 1322.009033,941.306152 1327.871704,942.515991 
	C1342.422241,945.518738 1346.189575,950.179016 1346.187500,965.070068 
	C1346.187256,967.067383 1346.068848,969.064697 1345.959229,971.505371 
z"/>
<path fill="#030200" opacity="1.000000" stroke="none" 
	d="
M966.798706,923.325684 
	C965.817810,924.220276 964.848877,925.101318 963.866638,925.116394 
	C957.705811,925.211182 951.533813,924.894775 945.381226,925.129028 
	C935.783691,925.494629 931.058777,929.238159 929.977112,938.745544 
	C929.159790,945.928528 929.330933,953.373962 930.216431,960.560303 
	C931.180237,968.381714 935.647400,972.437500 943.534546,973.067017 
	C951.116394,973.672119 958.784424,973.197815 967.264771,973.197815 
	C967.264771,976.233948 967.555054,979.500732 967.115601,982.666260 
	C966.949829,983.860168 965.279236,985.356079 963.981323,985.801392 
	C953.331238,989.455811 942.483887,990.275391 931.596924,986.951599 
	C923.604492,984.511475 918.013611,979.085510 915.058105,971.410950 
	C909.517578,957.023865 909.368835,942.388733 915.005981,928.013489 
	C919.461426,916.651794 928.499512,910.699951 940.432617,910.131348 
	C947.150635,909.811218 953.958008,911.215820 960.715698,911.932373 
	C965.482239,912.437744 967.809021,914.908813 966.833130,919.917969 
	C966.645447,920.881226 966.805115,921.912170 966.798706,923.325684 
z"/>
<path fill="#D52C29" opacity="1.000000" stroke="none" 
	d="
M1046.362915,1536.330322 
	C1041.334351,1538.588745 1036.644775,1540.676514 1031.040405,1543.171387 
	C1031.040405,1538.332031 1030.812622,1534.098633 1031.189819,1529.919678 
	C1031.292847,1528.778076 1033.030029,1527.373413 1034.329102,1526.816406 
	C1043.043213,1523.080566 1051.846436,1519.552856 1060.607422,1515.925781 
	C1062.097168,1515.308838 1063.523438,1514.538818 1066.143555,1513.280029 
	C1057.462891,1509.634766 1049.912231,1506.386230 1042.301392,1503.285767 
	C1030.264282,1498.382202 1030.245361,1498.424072 1031.089355,1485.508423 
	C1031.109863,1485.196045 1031.293457,1484.894287 1031.604736,1484.005981 
	C1036.442749,1486.179321 1041.236816,1488.340820 1046.037476,1490.487793 
	C1054.695679,1494.360229 1063.318726,1498.315186 1072.039551,1502.041016 
	C1075.027466,1503.317505 1075.852905,1505.115234 1076.319092,1508.376709 
	C1077.880127,1519.296875 1074.642944,1526.272705 1063.196777,1529.104614 
	C1057.467407,1530.522339 1052.186035,1533.750366 1046.362915,1536.330322 
z"/>
<path fill="#D42C29" opacity="1.000000" stroke="none" 
	d="
M941.411377,312.371277 
	C938.102661,313.819702 935.142944,315.108826 931.036194,316.897522 
	C941.222900,321.114197 950.071594,325.218597 959.239197,328.405090 
	C964.680054,330.296265 967.181213,332.974609 966.184998,338.780396 
	C965.806702,340.984955 966.123657,343.308807 966.123657,346.454132 
	C958.164368,342.984375 951.049377,339.907990 943.955872,336.783020 
	C937.419678,333.903564 930.946228,330.877686 924.362976,328.111694 
	C921.869385,327.063995 920.568176,325.666229 920.974731,322.884827 
	C921.117615,321.907684 920.997498,320.892090 920.997375,319.894043 
	C920.996216,307.310211 921.023193,307.372101 932.359314,302.416077 
	C941.794189,298.291260 951.153870,293.994629 960.551453,289.784393 
	C962.027344,289.123169 963.527466,288.516205 966.084717,287.430603 
	C966.084717,292.421356 966.278198,296.635956 965.943115,300.808136 
	C965.863525,301.798950 964.159912,302.990265 962.953979,303.505188 
	C955.930664,306.503937 948.832947,309.328522 941.411377,312.371277 
z"/>
<path fill="#D42C29" opacity="1.000000" stroke="none" 
	d="
M970.124023,1495.691040 
	C968.977478,1497.662109 968.153320,1499.917603 966.632812,1500.583740 
	C956.600403,1504.978516 946.418274,1509.031494 934.932190,1513.751831 
	C941.656738,1516.596313 947.182678,1518.943359 952.717163,1521.270264 
	C954.863342,1522.172607 957.020142,1523.051025 959.186707,1523.903198 
	C971.474121,1528.736816 971.475647,1528.732910 969.614929,1543.156494 
	C964.792603,1541.096802 960.120667,1539.160278 955.497253,1537.113892 
	C946.369080,1533.073975 937.207336,1529.098877 928.215454,1524.772705 
	C926.735657,1524.060669 925.207581,1521.737305 925.129150,1520.090576 
	C924.392700,1504.631836 924.514465,1504.700684 938.536865,1498.584351 
	C947.382385,1494.725952 956.110291,1490.598389 964.902466,1486.617065 
	C966.348999,1485.962280 967.855164,1485.439331 970.124268,1484.543213 
	C970.124268,1488.669556 970.124268,1491.954956 970.124023,1495.691040 
z"/>
<path fill="#D52C29" opacity="1.000000" stroke="none" 
	d="
M997.133423,322.114563 
	C1001.173279,320.443115 1004.851929,318.897949 1008.512390,317.311096 
	C1008.915466,317.136414 1009.214905,316.722778 1010.093323,315.957153 
	C1002.246948,312.731567 994.778198,309.627716 987.283508,306.587799 
	C974.825928,301.534943 974.818909,301.552216 976.258423,287.090607 
	C980.632446,289.067322 984.782654,290.944916 988.934570,292.818787 
	C998.484497,297.128998 1008.008179,301.499054 1017.604370,305.703705 
	C1020.046387,306.773651 1021.023376,308.121368 1021.063354,310.923187 
	C1021.281433,326.218079 1021.337524,326.141785 1007.013550,332.188293 
	C999.200195,335.486481 991.525452,339.112061 983.766663,342.541229 
	C981.530823,343.529449 979.220215,344.348389 975.902466,345.655060 
	C975.902466,340.792572 975.601135,336.709320 976.076904,332.718689 
	C976.229614,331.437744 978.250305,329.992615 979.732727,329.325806 
	C985.340393,326.803589 991.077942,324.570160 997.133423,322.114563 
z"/>
<path fill="#D52C29" opacity="1.000000" stroke="none" 
	d="
M1022.359375,1465.319458 
	C1011.554932,1491.669434 1000.955811,1517.681030 990.147278,1543.605469 
	C989.523682,1545.101318 987.318298,1546.546509 985.635620,1546.856567 
	C982.751099,1547.388184 979.697754,1547.003418 975.812561,1547.003418 
	C977.768982,1541.912109 979.433594,1537.341919 981.269897,1532.841797 
	C990.374695,1510.528809 999.513184,1488.229370 1008.665649,1465.935913 
	C1011.752747,1458.416260 1013.511963,1457.726562 1024.215454,1459.972168 
	C1023.634583,1461.680664 1023.076782,1463.321411 1022.359375,1465.319458 
z"/>
<path fill="#EFA800" opacity="1.000000" stroke="none" 
	d="
M776.419617,973.798340 
	C768.106934,972.243713 765.137878,970.062195 764.634827,962.238708 
	C764.029663,952.829834 764.305176,943.278687 765.207642,933.886108 
	C765.901489,926.665222 769.912781,923.785217 777.218811,924.086670 
	C783.652344,924.352112 790.057068,925.313110 797.069885,926.027649 
	C797.069885,933.596436 797.069885,940.532837 797.069885,947.469238 
	C797.069885,953.800049 796.935059,960.135132 797.131470,966.459839 
	C797.218567,969.261963 796.457825,970.899048 793.560974,971.315613 
	C787.984802,972.117371 782.417480,972.980957 776.419617,973.798340 
z"/>
<path fill="#EDA700" opacity="1.000000" stroke="none" 
	d="
M1252.923828,954.789062 
	C1252.111938,971.608215 1248.909668,974.623535 1232.579224,973.884155 
	C1228.496582,973.699341 1224.444580,972.836975 1220.309814,972.276733 
	C1220.309814,957.042297 1220.309814,942.453125 1220.309814,926.480469 
	C1227.547363,925.719482 1234.840576,924.460022 1242.151855,924.346191 
	C1247.590820,924.261475 1251.046875,927.875793 1251.813599,933.971863 
	C1252.659058,940.693909 1252.598145,947.529846 1252.923828,954.789062 
z"/>
<path fill="#EBA600" opacity="1.000000" stroke="none" 
	d="
M1012.933105,974.829224 
	C1002.701233,974.560303 999.846558,971.682251 1000.752625,963.224060 
	C1001.207825,958.974243 1003.405518,956.231995 1007.618713,956.075684 
	C1015.174377,955.795288 1022.747803,955.996582 1029.932129,955.996582 
	C1030.506226,957.869873 1030.756104,958.330872 1030.776245,958.801697 
	C1031.322388,971.530090 1030.904053,972.052185 1018.302002,974.207153 
	C1016.671448,974.485901 1015.016296,974.620728 1012.933105,974.829224 
z"/>
<path fill="#EEA800" opacity="1.000000" stroke="none" 
	d="
M883.144409,940.891418 
	C882.307190,941.907104 881.486145,942.913391 880.654175,942.922485 
	C870.688721,943.031677 860.721741,942.993042 850.817993,942.993042 
	C849.344360,935.441406 851.630066,928.430054 856.388367,925.415039 
	C861.824341,921.970642 874.432800,922.007507 878.883728,925.644897 
	C883.650757,929.540649 882.929688,935.144104 883.144409,940.891418 
z"/>
<path fill="#EDA700" opacity="1.000000" stroke="none" 
	d="
M688.340454,923.931763 
	C692.534119,923.620361 696.384583,922.908569 700.116333,923.307251 
	C707.209229,924.065186 712.033997,928.849609 712.692017,936.697754 
	C713.368774,944.769409 713.457825,953.005554 712.655579,961.055298 
	C711.762146,970.020874 705.947449,974.335571 696.441956,974.707214 
	C686.655457,975.089905 679.992065,971.160339 678.887329,962.210388 
	C677.782043,953.256836 678.306702,944.024963 678.907471,934.967529 
	C679.256592,929.704834 682.718872,925.856201 688.340454,923.931763 
z"/>
</svg>